<svg xmlns="http://www.w3.org/2000/svg" viewBox="0 0 24 24">
  <path fill="#1769ff" d="M0 7.5v9c0 .825.675 1.5 1.5 1.5h21c.825 0 1.5-.675 1.5-1.5v-9c0-.825-.675-1.5-1.5-1.5h-21C.675 6 0 6.675 0 7.5zM6.735 10.11c.504 0 .756.252.756.756s-.252.756-.756.756H4.5v-1.512h2.235zm.756 2.268c0 .504-.252.756-.756.756H4.5v-1.512h2.991c.504 0 .756.252.756.756zm6.174-2.268c.504 0 .756.252.756.756s-.252.756-.756.756h-2.235v-1.512h2.235zm.756 2.268c0 .504-.252.756-.756.756h-2.991v-1.512h2.991c.504 0 .756.252.756.756zM15 8.25h4.5v1.5H15v-1.5z"/>
</svg>