<svg xmlns="http://www.w3.org/2000/svg" viewBox="0 0 24 24">
  <path fill="#0175c2" d="M4.105 4.105S9.158 1.58 11.684.316a3.079 3.079 0 0 1 1.481-.315c.766.047 1.677.788 1.677.788L24 9.948v9.789h-4.263V24H9.789l-9.47-9.47a3.076 3.076 0 0 1-.704-3.513L4.105 4.105z"/>
  <path fill="#29b6f6" d="M5.421 9.525a2.1 2.1 0 0 1 2.103 2.1 2.1 2.1 0 0 1-2.103 2.1 2.1 2.1 0 0 1-2.102-2.1 2.1 2.1 0 0 1 2.102-2.1z"/>
  <path fill="#01579b" d="M14.316 17.684h5.263v5.263l-5.263-.001V17.684z"/>
  <path fill="#40c4ff" d="M14.316 5.684L24 15.368V9.947L14.316.263V5.684z"/>
</svg>