<svg xmlns="http://www.w3.org/2000/svg" viewBox="0 0 24 24">
  <path fill="#ea4c89" d="M12 0C5.374 0 0 5.374 0 12s5.374 12 12 12 12-5.374 12-12S18.626 0 12 0zm7.568 5.302c1.4 1.5 2.252 3.5 2.273 5.698-.653-.126-7.512-1.415-7.825-1.484-.126-.315-.252-.63-.315-.945 2.277-.945 5.02-2.9 5.867-3.269zM12 2.138c2.773 0 5.302 1.058 7.207 2.781-.567.315-2.992 2.151-5.738 2.898-1.26-2.312-2.651-4.246-2.84-4.56A9.792 9.792 0 0 1 12 2.138zM9.026 3.618c.189.315 1.58 2.277 2.84 4.56-3.583 1.008-6.748 1.008-7.133 1.008A9.849 9.849 0 0 1 9.026 3.618zM2.138 12c0-.126 0-.252.063-.378.315 0 4.309 0 8.176-1.134.126.252.189.504.315.756-4.246 1.197-6.495 4.498-6.748 4.876A9.717 9.717 0 0 1 2.138 12zM12 21.862c-2.52 0-4.813-.945-6.558-2.52.189-.315 1.827-2.898 6.558-4.309 1.197 3.024 1.701 5.587 1.827 6.306A9.91 9.91 0 0 1 12 21.862zm2.898-1.134c-.126-.567-.567-2.898-1.701-5.859 2.52-.378 4.75.252 5.02.315a9.973 9.973 0 0 1-3.319 5.544z"/>
</svg>