<svg xmlns="http://www.w3.org/2000/svg" viewBox="0 0 24 24">
  <rect fill="#ffffff" width="24" height="24" rx="4" stroke="#e0e0e0" stroke-width="1"/>
  <path fill="#ea4335" d="M12 5c1.6 0 3 .6 4.1 1.6l1.5-1.5C16.1 3.8 14.2 3 12 3c-2.4 0-4.5 1-6 2.6l1.7 1.3C8.6 5.9 10.2 5 12 5z"/>
  <path fill="#34a853" d="M21 12c0-.8-.1-1.5-.2-2.2H12v4.2h5.1c-.2 1.2-.9 2.2-1.9 2.9l1.7 1.3c1.6-1.5 2.6-3.7 2.6-6.2z"/>
  <path fill="#fbbc05" d="M5.2 14.2c-.2-.6-.2-1.2-.2-1.8s0-1.2.2-1.8L3.5 9.3C2.5 10.8 2 11.4 2 12s.5 1.2 1.5 2.7l1.7-1.3z"/>
  <path fill="#ea4335" d="M12 21c2.2 0 4.1-.7 5.4-2l-1.7-1.3c-.8.5-1.8.8-3.7.8-2.8 0-5.2-1.9-6.1-4.5L3.5 15.3C5 18.4 8.2 21 12 21z"/>
  <circle fill="#4285f4" cx="12" cy="12" r="1"/>
</svg>