<svg xmlns="http://www.w3.org/2000/svg" viewBox="0 0 24 24" fill="#4a90e2">
  <path d="M16 4.2c1.5 0 3 .6 4.2 1.7.4.4.4 1 0 1.4-.4.4-1 .4-1.4 0C18 6.5 17 6 16 6s-2 .5-2.8 1.3c-.4.4-1 .4-1.4 0-.4-.4-.4-1 0-1.4C13 4.8 14.5 4.2 16 4.2zM16 0c2.5 0 4.9 1 6.7 2.8.4.4.4 1 0 1.4-.4.4-1 .4-1.4 0C19.7 2.6 17.9 2 16 2s-3.7.6-5.3 2.2c-.4.4-1 .4-1.4 0-.4-.4-.4-1 0-1.4C11.1 1 13.5 0 16 0zM8 9c-.6 0-1 .4-1 1v2H5c-.6 0-1 .4-1 1v8c0 .6.4 1 1 1h14c.6 0 1-.4 1-1v-8c0-.6-.4-1-1-1h-2v-2c0-.6-.4-1-1-1H8zm1 2h6v2H9v-2zm-3 4h12v6H6v-6zm2 2c-.6 0-1 .4-1 1s.4 1 1 1 1-.4 1-1-.4-1-1-1zm4 0c-.6 0-1 .4-1 1s.4 1 1 1 1-.4 1-1-.4-1-1-1z"/>
</svg>
